<svg xmlns="http://www.w3.org/2000/svg" viewBox="0 0 900 620" role="img" aria-labelledby="t d">
<title id="t">Mapa Game Boy: Aventura 1</title><desc id="d">Tres casas por pandilla, puertas, spawns y gatos que aparecen por los bordes.</desc>
<defs><style>.case{fill:#d8d7c8;stroke:#2f3140;stroke-width:10}.screen{fill:#9bbc0f;stroke:#2f3140;stroke-width:8}.grid{stroke:#306230;stroke-width:2}.txt{font:700 20px monospace;fill:#0f380f}.small{font:700 15px monospace;fill:#0f380f}.spawn{fill:#ff2bac;stroke:#0f380f;stroke-width:3}.house{fill:#ffe733;stroke:#0f380f;stroke-width:4}.door{fill:#00e5ff;stroke:#0f380f;stroke-width:3}.cat{fill:#151528}</style></defs>
<rect x="25" y="25" width="850" height="570" rx="42" class="case"/><rect x="100" y="70" width="700" height="470" rx="18" class="screen"/>
<g transform="translate(170 105)"><rect width="360" height="360" fill="#8bac0f" stroke="#0f380f" stroke-width="5"/><g class="grid"><path d="M30 0v360M60 0v360M90 0v360M120 0v360M150 0v360M180 0v360M210 0v360M240 0v360M270 0v360M300 0v360M330 0v360M0 30h360M0 60h360M0 90h360M0 120h360M0 150h360M0 180h360M0 210h360M0 240h360M0 270h360M0 300h360M0 330h360"/></g><rect x="0" y="0" width="360" height="30" class="spawn"/><rect x="0" y="330" width="360" height="30" class="spawn"/><rect x="0" y="0" width="30" height="360" class="spawn"/><rect x="330" y="0" width="30" height="360" class="spawn"/>
<rect x="60" y="60" width="60" height="60" class="house"/><rect x="90" y="115" width="18" height="15" class="door"/><rect x="210" y="60" width="60" height="60" class="house"/><rect x="235" y="115" width="18" height="15" class="door"/><rect x="135" y="225" width="60" height="60" class="house"/><rect x="155" y="215" width="18" height="15" class="door"/><circle cx="25" cy="170" r="8" class="cat"/><circle cx="335" cy="210" r="8" class="cat"/></g>
<text x="575" y="145" class="txt">AV.1 PUERTAS</text><text x="575" y="190" class="small">3 casas por pandilla</text><text x="575" y="220" class="small">Puertas = Tareas</text><text x="575" y="250" class="small">Gatos entran por Spawn</text><text x="575" y="300" class="small">Mantén 2 casillas</text><text x="575" y="330" class="small">entre casas</text>
</svg>
