<svg xmlns="http://www.w3.org/2000/svg" viewBox="0 0 900 620" role="img" aria-labelledby="t d">
<title id="t">Mapa Game Boy: cruce de alcantarillas</title><desc id="d">Cruce de alcantarillas con túneles de 4 casillas, mutantes en el centro, despliegues y desastres.</desc>
<defs><style>.case{fill:#d8d7c8;stroke:#2f3140;stroke-width:10}.screen{fill:#9bbc0f;stroke:#2f3140;stroke-width:8}.grid{stroke:#306230;stroke-width:2}.txt{font:700 20px monospace;fill:#0f380f}.small{font:700 15px monospace;fill:#0f380f}.wall{fill:#0f380f}.tunnel{fill:#8bac0f;stroke:#306230;stroke-width:2}.deploy{fill:#00e5ff;stroke:#0f380f;stroke-width:3}.mut{fill:#ff2bac;stroke:#0f380f;stroke-width:3}.mess{fill:#ffe733;stroke:#0f380f;stroke-width:3}</style></defs>
<rect x="25" y="25" width="850" height="570" rx="42" class="case"/><rect x="100" y="70" width="700" height="470" rx="18" class="screen"/>
<g transform="translate(170 105)"><rect width="360" height="360" class="wall"/><rect x="120" y="0" width="120" height="360" class="tunnel"/><rect x="0" y="120" width="360" height="120" class="tunnel"/><g class="grid"><path d="M30 0v360M60 0v360M90 0v360M120 0v360M150 0v360M180 0v360M210 0v360M240 0v360M270 0v360M300 0v360M330 0v360M0 30h360M0 60h360M0 90h360M0 120h360M0 150h360M0 180h360M0 210h360M0 240h360M0 270h360M0 300h360M0 330h360"/></g>
<rect x="0" y="120" width="60" height="120" class="deploy"/><rect x="300" y="120" width="60" height="120" class="deploy"/><circle cx="165" cy="180" r="12" class="mut"/><circle cx="195" cy="180" r="12" class="mut"/><circle cx="180" cy="210" r="12" class="mut"/><circle cx="95" cy="150" r="9" class="mess"/><circle cx="95" cy="220" r="9" class="mess"/><circle cx="265" cy="150" r="9" class="mess"/><circle cx="265" cy="220" r="9" class="mess"/></g>
<text x="575" y="140" class="txt">ALCANTARILLA</text><text x="575" y="180" class="small">Túneles: 4 casillas</text><text x="575" y="210" class="small">Mutantes en cruce</text><text x="575" y="240" class="small">4 Desastres por pandilla</text><text x="575" y="285" class="small">Azul: despliegues</text>
</svg>
