<svg xmlns="http://www.w3.org/2000/svg" viewBox="0 0 900 620" role="img" aria-labelledby="t d">
<title id="t">Mapa Game Boy: despliegue básico</title><desc id="d">Tablero de 12 por 12 con spawns en los cuatro bordes, centro y leyenda.</desc>
<defs><style>.case{fill:#d8d7c8;stroke:#2f3140;stroke-width:10}.screen{fill:#9bbc0f;stroke:#2f3140;stroke-width:8}.grid{stroke:#306230;stroke-width:2}.txt{font:700 22px monospace;fill:#0f380f}.small{font:700 16px monospace;fill:#0f380f}.spawn{fill:#ff2bac;stroke:#0f380f;stroke-width:3}.center{fill:#00e5ff;stroke:#0f380f;stroke-width:3}.terrain{fill:#ffe733;stroke:#0f380f;stroke-width:3}</style></defs>
<rect x="25" y="25" width="850" height="570" rx="42" class="case"/><rect x="100" y="70" width="700" height="470" rx="18" class="screen"/>
<g transform="translate(170 105)"><rect width="360" height="360" fill="#8bac0f" stroke="#0f380f" stroke-width="5"/><g class="grid"><path d="M30 0v360M60 0v360M90 0v360M120 0v360M150 0v360M180 0v360M210 0v360M240 0v360M270 0v360M300 0v360M330 0v360M0 30h360M0 60h360M0 90h360M0 120h360M0 150h360M0 180h360M0 210h360M0 240h360M0 270h360M0 300h360M0 330h360"/></g>
<rect x="0" y="0" width="360" height="30" class="spawn"/><rect x="0" y="330" width="360" height="30" class="spawn"/><rect x="0" y="0" width="30" height="360" class="spawn"/><rect x="330" y="0" width="30" height="360" class="spawn"/><rect x="150" y="150" width="60" height="60" class="center"/><rect x="60" y="90" width="60" height="30" class="terrain"/><rect x="240" y="240" width="60" height="30" class="terrain"/></g>
<text x="575" y="150" class="txt">DESPLIEGUE</text><rect x="575" y="185" width="38" height="26" class="spawn"/><text x="625" y="207" class="small">Spawns / borde</text><rect x="575" y="230" width="38" height="26" class="center"/><text x="625" y="252" class="small">Objetivo central</text><rect x="575" y="275" width="38" height="26" class="terrain"/><text x="625" y="297" class="small">Escenografía</text><text x="575" y="355" class="small">Movimiento: ortogonal</text><text x="575" y="382" class="small">Melee: adyacente</text><text x="575" y="409" class="small">Disparo: línea de visión</text>
</svg>
