<svg xmlns="http://www.w3.org/2000/svg" viewBox="0 0 900 620" role="img" aria-labelledby="t d">
<title id="t">Mapa Game Boy: frigorífico y duendes</title><desc id="d">Frigorífico central, ruido, duendes y salida por spawns.</desc>
<defs><style>.case{fill:#d8d7c8;stroke:#2f3140;stroke-width:10}.screen{fill:#9bbc0f;stroke:#2f3140;stroke-width:8}.grid{stroke:#306230;stroke-width:2}.txt{font:700 20px monospace;fill:#0f380f}.small{font:700 15px monospace;fill:#0f380f}.spawn{fill:#ff2bac;stroke:#0f380f;stroke-width:3}.fridge{fill:#00e5ff;stroke:#0f380f;stroke-width:5}.gob{fill:#ffe733;stroke:#0f380f;stroke-width:3}</style></defs>
<rect x="25" y="25" width="850" height="570" rx="42" class="case"/><rect x="100" y="70" width="700" height="470" rx="18" class="screen"/>
<g transform="translate(170 105)"><rect width="360" height="360" fill="#8bac0f" stroke="#0f380f" stroke-width="5"/><g class="grid"><path d="M30 0v360M60 0v360M90 0v360M120 0v360M150 0v360M180 0v360M210 0v360M240 0v360M270 0v360M300 0v360M330 0v360M0 30h360M0 60h360M0 90h360M0 120h360M0 150h360M0 180h360M0 210h360M0 240h360M0 270h360M0 300h360M0 330h360"/></g><rect x="0" y="0" width="360" height="30" class="spawn"/><rect x="0" y="330" width="360" height="30" class="spawn"/><rect x="0" y="0" width="30" height="360" class="spawn"/><rect x="330" y="0" width="30" height="360" class="spawn"/><rect x="150" y="135" width="60" height="90" class="fridge"/><circle cx="60" cy="70" r="11" class="gob"/><circle cx="300" cy="70" r="11" class="gob"/><circle cx="70" cy="300" r="11" class="gob"/><circle cx="300" cy="300" r="11" class="gob"/></g>
<text x="575" y="145" class="txt">FRIGORÍFICO</text><text x="575" y="190" class="small">Centro = comida</text><text x="575" y="220" class="small">Duendes roban y huyen</text><text x="575" y="250" class="small">Ruido 5 = Padre</text><text x="575" y="300" class="small">Salir por borde</text>
</svg>
