<svg xmlns="http://www.w3.org/2000/svg" viewBox="0 0 900 620" role="img" aria-labelledby="t d">
<title id="t">Mapa Game Boy: huida a la alcantarilla</title><desc id="d">Alcantarilla central, matones dispersos y despliegues opuestos.</desc>
<defs><style>.case{fill:#d8d7c8;stroke:#2f3140;stroke-width:10}.screen{fill:#9bbc0f;stroke:#2f3140;stroke-width:8}.grid{stroke:#306230;stroke-width:2}.txt{font:700 20px monospace;fill:#0f380f}.small{font:700 15px monospace;fill:#0f380f}.spawn{fill:#ff2bac;stroke:#0f380f;stroke-width:3}.exit{fill:#151528;stroke:#00e5ff;stroke-width:5}.enemy{fill:#ffe733;stroke:#0f380f;stroke-width:3}.kid{fill:#00e5ff;stroke:#0f380f;stroke-width:3}</style></defs>
<rect x="25" y="25" width="850" height="570" rx="42" class="case"/><rect x="100" y="70" width="700" height="470" rx="18" class="screen"/>
<g transform="translate(170 105)"><rect width="360" height="360" fill="#8bac0f" stroke="#0f380f" stroke-width="5"/><g class="grid"><path d="M30 0v360M60 0v360M90 0v360M120 0v360M150 0v360M180 0v360M210 0v360M240 0v360M270 0v360M300 0v360M330 0v360M0 30h360M0 60h360M0 90h360M0 120h360M0 150h360M0 180h360M0 210h360M0 240h360M0 270h360M0 300h360M0 330h360"/></g><rect x="0" y="0" width="30" height="360" class="spawn"/><rect x="330" y="0" width="30" height="360" class="spawn"/><circle cx="180" cy="180" r="25" class="exit"/><circle cx="75" cy="90" r="10" class="kid"/><circle cx="75" cy="120" r="10" class="kid"/><circle cx="285" cy="240" r="10" class="kid"/><circle cx="285" cy="270" r="10" class="kid"/><circle cx="145" cy="150" r="10" class="enemy"/><circle cx="210" cy="150" r="10" class="enemy"/><circle cx="150" cy="220" r="10" class="enemy"/><circle cx="235" cy="235" r="10" class="enemy"/></g>
<text x="575" y="145" class="txt">HUÍDA</text><text x="575" y="190" class="small">Salida: centro</text><text x="575" y="220" class="small">1 peque por ronda</text><text x="575" y="250" class="small">Matones bloquean paso</text><text x="575" y="300" class="small">Spawns opuestos</text>
</svg>
